<svg id="visual" viewBox="0 0 1033 450" width="1033" height="450" xmlns="http://www.w3.org/2000/svg" xmlns:xlink="http://www.w3.org/1999/xlink" version="1.1"><g transform="translate(487.294606222557 229.37524230207242)"><path d="M117.3 -148.3C160.6 -130.1 210.1 -107.2 236.2 -67.2C262.3 -27.3 264.9 29.8 247.7 79.7C230.4 129.7 193.4 172.4 148.8 187.2C104.2 202.1 52.1 188.9 4.9 182.2C-42.3 175.4 -84.6 175.1 -115.7 155.9C-146.8 136.7 -166.6 98.6 -180.8 58C-195 17.4 -203.5 -25.8 -199 -72.4C-194.5 -119 -176.9 -169.1 -141.5 -190C-106.2 -210.8 -53.1 -202.4 -8 -191.4C37 -180.3 74.1 -166.6 117.3 -148.3" fill="#ffc0cb"></path></g></svg>