<svg xmlns="http://www.w3.org/2000/svg" version="1.1" xmlns:xlink="http://www.w3.org/1999/xlink" xmlns:svgjs="http://svgjs.dev/svgjs" viewBox="0 0 800 800" opacity="1"><defs><linearGradient gradientTransform="rotate(270)" x1="50%" y1="0%" x2="50%" y2="100%" id="sssquiggly-grad"><stop stop-color="hsl(206, 75%, 49%)" stop-opacity="1" offset="0%"></stop><stop stop-color="hsl(331, 90%, 56%)" stop-opacity="1" offset="100%"></stop></linearGradient></defs><g stroke-width="2" stroke="url(#sssquiggly-grad)" fill="none" stroke-linecap="round" transform="matrix(1,0,0,1,-5,132.9883918762207)"><path d="M10,10C21.805555555555557,12.916666666666668,40.97222222222223,33.166666666666664,66.66666666666667,24C92.36111111111111,14.833333333333334,105.55555555555557,-32.958333333333336,133.33333333333334,-34C161.11111111111111,-35.041666666666664,172.22222222222223,15.666666666666668,200,19C227.77777777777777,22.333333333333332,238.8888888888889,-20.5,266.6666666666667,-18C294.44444444444446,-15.5,305.5555555555556,28.083333333333332,333.33333333333337,31C361.11111111111114,33.916666666666664,372.22222222222223,-8.583333333333332,400,-4C427.77777777777777,0.583333333333333,438.8888888888889,56.541666666666664,466.6666666666667,53C494.44444444444446,49.458333333333336,505.5555555555556,-21.625,533.3333333333334,-21C561.1111111111111,-20.375,572.2222222222222,50.166666666666664,600,56C627.7777777777778,61.833333333333336,638.8888888888889,6.583333333333333,666.6666666666667,7C694.4444444444446,7.416666666666667,705.5555555555557,59.666666666666664,733.3333333333334,58C761.1111111111111,56.333333333333336,786.1111111111111,11.291666666666668,800,-1"></path><path d="M10,10C21.805555555555557,12.916666666666668,40.97222222222223,33.166666666666664,66.66666666666667,24C92.36111111111111,14.833333333333334,105.55555555555557,-32.958333333333336,133.33333333333334,-34C161.11111111111111,-35.041666666666664,172.22222222222223,15.666666666666668,200,19C227.77777777777777,22.333333333333332,238.8888888888889,-20.5,266.6666666666667,-18C294.44444444444446,-15.5,305.5555555555556,28.083333333333332,333.33333333333337,31C361.11111111111114,33.916666666666664,372.22222222222223,-8.583333333333332,400,-4C427.77777777777777,0.583333333333333,438.8888888888889,56.541666666666664,466.6666666666667,53C494.44444444444446,49.458333333333336,505.5555555555556,-21.625,533.3333333333334,-21C561.1111111111111,-20.375,572.2222222222222,50.166666666666664,600,56C627.7777777777778,61.833333333333336,638.8888888888889,6.583333333333333,666.6666666666667,7C694.4444444444446,7.416666666666667,705.5555555555557,59.666666666666664,733.3333333333334,58C761.1111111111111,56.333333333333336,786.1111111111111,11.291666666666668,800,-1" transform="matrix(1,0,0,1,0,510)"></path><path d="M10,10C21.805555555555557,12.916666666666668,40.97222222222223,33.166666666666664,66.66666666666667,24C92.36111111111111,14.833333333333334,105.55555555555557,-32.958333333333336,133.33333333333334,-34C161.11111111111111,-35.041666666666664,172.22222222222223,15.666666666666668,200,19C227.77777777777777,22.333333333333332,238.8888888888889,-20.5,266.6666666666667,-18C294.44444444444446,-15.5,305.5555555555556,28.083333333333332,333.33333333333337,31C361.11111111111114,33.916666666666664,372.22222222222223,-8.583333333333332,400,-4C427.77777777777777,0.583333333333333,438.8888888888889,56.541666666666664,466.6666666666667,53C494.44444444444446,49.458333333333336,505.5555555555556,-21.625,533.3333333333334,-21C561.1111111111111,-20.375,572.2222222222222,50.166666666666664,600,56C627.7777777777778,61.833333333333336,638.8888888888889,6.583333333333333,666.6666666666667,7C694.4444444444446,7.416666666666667,705.5555555555557,59.666666666666664,733.3333333333334,58C761.1111111111111,56.333333333333336,786.1111111111111,11.291666666666668,800,-1" transform="matrix(1,0,0,1,0,476)"></path><path d="M10,10C21.805555555555557,12.916666666666668,40.97222222222223,33.166666666666664,66.66666666666667,24C92.36111111111111,14.833333333333334,105.55555555555557,-32.958333333333336,133.33333333333334,-34C161.11111111111111,-35.041666666666664,172.22222222222223,15.666666666666668,200,19C227.77777777777777,22.333333333333332,238.8888888888889,-20.5,266.6666666666667,-18C294.44444444444446,-15.5,305.5555555555556,28.083333333333332,333.33333333333337,31C361.11111111111114,33.916666666666664,372.22222222222223,-8.583333333333332,400,-4C427.77777777777777,0.583333333333333,438.8888888888889,56.541666666666664,466.6666666666667,53C494.44444444444446,49.458333333333336,505.5555555555556,-21.625,533.3333333333334,-21C561.1111111111111,-20.375,572.2222222222222,50.166666666666664,600,56C627.7777777777778,61.833333333333336,638.8888888888889,6.583333333333333,666.6666666666667,7C694.4444444444446,7.416666666666667,705.5555555555557,59.666666666666664,733.3333333333334,58C761.1111111111111,56.333333333333336,786.1111111111111,11.291666666666668,800,-1" transform="matrix(1,0,0,1,0,442)"></path><path d="M10,10C21.805555555555557,12.916666666666668,40.97222222222223,33.166666666666664,66.66666666666667,24C92.36111111111111,14.833333333333334,105.55555555555557,-32.958333333333336,133.33333333333334,-34C161.11111111111111,-35.041666666666664,172.22222222222223,15.666666666666668,200,19C227.77777777777777,22.333333333333332,238.8888888888889,-20.5,266.6666666666667,-18C294.44444444444446,-15.5,305.5555555555556,28.083333333333332,333.33333333333337,31C361.11111111111114,33.916666666666664,372.22222222222223,-8.583333333333332,400,-4C427.77777777777777,0.583333333333333,438.8888888888889,56.541666666666664,466.6666666666667,53C494.44444444444446,49.458333333333336,505.5555555555556,-21.625,533.3333333333334,-21C561.1111111111111,-20.375,572.2222222222222,50.166666666666664,600,56C627.7777777777778,61.833333333333336,638.8888888888889,6.583333333333333,666.6666666666667,7C694.4444444444446,7.416666666666667,705.5555555555557,59.666666666666664,733.3333333333334,58C761.1111111111111,56.333333333333336,786.1111111111111,11.291666666666668,800,-1" transform="matrix(1,0,0,1,0,408)"></path><path d="M10,10C21.805555555555557,12.916666666666668,40.97222222222223,33.166666666666664,66.66666666666667,24C92.36111111111111,14.833333333333334,105.55555555555557,-32.958333333333336,133.33333333333334,-34C161.11111111111111,-35.041666666666664,172.22222222222223,15.666666666666668,200,19C227.77777777777777,22.333333333333332,238.8888888888889,-20.5,266.6666666666667,-18C294.44444444444446,-15.5,305.5555555555556,28.083333333333332,333.33333333333337,31C361.11111111111114,33.916666666666664,372.22222222222223,-8.583333333333332,400,-4C427.77777777777777,0.583333333333333,438.8888888888889,56.541666666666664,466.6666666666667,53C494.44444444444446,49.458333333333336,505.5555555555556,-21.625,533.3333333333334,-21C561.1111111111111,-20.375,572.2222222222222,50.166666666666664,600,56C627.7777777777778,61.833333333333336,638.8888888888889,6.583333333333333,666.6666666666667,7C694.4444444444446,7.416666666666667,705.5555555555557,59.666666666666664,733.3333333333334,58C761.1111111111111,56.333333333333336,786.1111111111111,11.291666666666668,800,-1" transform="matrix(1,0,0,1,0,374)"></path><path d="M10,10C21.805555555555557,12.916666666666668,40.97222222222223,33.166666666666664,66.66666666666667,24C92.36111111111111,14.833333333333334,105.55555555555557,-32.958333333333336,133.33333333333334,-34C161.11111111111111,-35.041666666666664,172.22222222222223,15.666666666666668,200,19C227.77777777777777,22.333333333333332,238.8888888888889,-20.5,266.6666666666667,-18C294.44444444444446,-15.5,305.5555555555556,28.083333333333332,333.33333333333337,31C361.11111111111114,33.916666666666664,372.22222222222223,-8.583333333333332,400,-4C427.77777777777777,0.583333333333333,438.8888888888889,56.541666666666664,466.6666666666667,53C494.44444444444446,49.458333333333336,505.5555555555556,-21.625,533.3333333333334,-21C561.1111111111111,-20.375,572.2222222222222,50.166666666666664,600,56C627.7777777777778,61.833333333333336,638.8888888888889,6.583333333333333,666.6666666666667,7C694.4444444444446,7.416666666666667,705.5555555555557,59.666666666666664,733.3333333333334,58C761.1111111111111,56.333333333333336,786.1111111111111,11.291666666666668,800,-1" transform="matrix(1,0,0,1,0,340)"></path><path d="M10,10C21.805555555555557,12.916666666666668,40.97222222222223,33.166666666666664,66.66666666666667,24C92.36111111111111,14.833333333333334,105.55555555555557,-32.958333333333336,133.33333333333334,-34C161.11111111111111,-35.041666666666664,172.22222222222223,15.666666666666668,200,19C227.77777777777777,22.333333333333332,238.8888888888889,-20.5,266.6666666666667,-18C294.44444444444446,-15.5,305.5555555555556,28.083333333333332,333.33333333333337,31C361.11111111111114,33.916666666666664,372.22222222222223,-8.583333333333332,400,-4C427.77777777777777,0.583333333333333,438.8888888888889,56.541666666666664,466.6666666666667,53C494.44444444444446,49.458333333333336,505.5555555555556,-21.625,533.3333333333334,-21C561.1111111111111,-20.375,572.2222222222222,50.166666666666664,600,56C627.7777777777778,61.833333333333336,638.8888888888889,6.583333333333333,666.6666666666667,7C694.4444444444446,7.416666666666667,705.5555555555557,59.666666666666664,733.3333333333334,58C761.1111111111111,56.333333333333336,786.1111111111111,11.291666666666668,800,-1" transform="matrix(1,0,0,1,0,306)"></path><path d="M10,10C21.805555555555557,12.916666666666668,40.97222222222223,33.166666666666664,66.66666666666667,24C92.36111111111111,14.833333333333334,105.55555555555557,-32.958333333333336,133.33333333333334,-34C161.11111111111111,-35.041666666666664,172.22222222222223,15.666666666666668,200,19C227.77777777777777,22.333333333333332,238.8888888888889,-20.5,266.6666666666667,-18C294.44444444444446,-15.5,305.5555555555556,28.083333333333332,333.33333333333337,31C361.11111111111114,33.916666666666664,372.22222222222223,-8.583333333333332,400,-4C427.77777777777777,0.583333333333333,438.8888888888889,56.541666666666664,466.6666666666667,53C494.44444444444446,49.458333333333336,505.5555555555556,-21.625,533.3333333333334,-21C561.1111111111111,-20.375,572.2222222222222,50.166666666666664,600,56C627.7777777777778,61.833333333333336,638.8888888888889,6.583333333333333,666.6666666666667,7C694.4444444444446,7.416666666666667,705.5555555555557,59.666666666666664,733.3333333333334,58C761.1111111111111,56.333333333333336,786.1111111111111,11.291666666666668,800,-1" transform="matrix(1,0,0,1,0,272)"></path><path d="M10,10C21.805555555555557,12.916666666666668,40.97222222222223,33.166666666666664,66.66666666666667,24C92.36111111111111,14.833333333333334,105.55555555555557,-32.958333333333336,133.33333333333334,-34C161.11111111111111,-35.041666666666664,172.22222222222223,15.666666666666668,200,19C227.77777777777777,22.333333333333332,238.8888888888889,-20.5,266.6666666666667,-18C294.44444444444446,-15.5,305.5555555555556,28.083333333333332,333.33333333333337,31C361.11111111111114,33.916666666666664,372.22222222222223,-8.583333333333332,400,-4C427.77777777777777,0.583333333333333,438.8888888888889,56.541666666666664,466.6666666666667,53C494.44444444444446,49.458333333333336,505.5555555555556,-21.625,533.3333333333334,-21C561.1111111111111,-20.375,572.2222222222222,50.166666666666664,600,56C627.7777777777778,61.833333333333336,638.8888888888889,6.583333333333333,666.6666666666667,7C694.4444444444446,7.416666666666667,705.5555555555557,59.666666666666664,733.3333333333334,58C761.1111111111111,56.333333333333336,786.1111111111111,11.291666666666668,800,-1" transform="matrix(1,0,0,1,0,238)"></path><path d="M10,10C21.805555555555557,12.916666666666668,40.97222222222223,33.166666666666664,66.66666666666667,24C92.36111111111111,14.833333333333334,105.55555555555557,-32.958333333333336,133.33333333333334,-34C161.11111111111111,-35.041666666666664,172.22222222222223,15.666666666666668,200,19C227.77777777777777,22.333333333333332,238.8888888888889,-20.5,266.6666666666667,-18C294.44444444444446,-15.5,305.5555555555556,28.083333333333332,333.33333333333337,31C361.11111111111114,33.916666666666664,372.22222222222223,-8.583333333333332,400,-4C427.77777777777777,0.583333333333333,438.8888888888889,56.541666666666664,466.6666666666667,53C494.44444444444446,49.458333333333336,505.5555555555556,-21.625,533.3333333333334,-21C561.1111111111111,-20.375,572.2222222222222,50.166666666666664,600,56C627.7777777777778,61.833333333333336,638.8888888888889,6.583333333333333,666.6666666666667,7C694.4444444444446,7.416666666666667,705.5555555555557,59.666666666666664,733.3333333333334,58C761.1111111111111,56.333333333333336,786.1111111111111,11.291666666666668,800,-1" transform="matrix(1,0,0,1,0,204)"></path><path d="M10,10C21.805555555555557,12.916666666666668,40.97222222222223,33.166666666666664,66.66666666666667,24C92.36111111111111,14.833333333333334,105.55555555555557,-32.958333333333336,133.33333333333334,-34C161.11111111111111,-35.041666666666664,172.22222222222223,15.666666666666668,200,19C227.77777777777777,22.333333333333332,238.8888888888889,-20.5,266.6666666666667,-18C294.44444444444446,-15.5,305.5555555555556,28.083333333333332,333.33333333333337,31C361.11111111111114,33.916666666666664,372.22222222222223,-8.583333333333332,400,-4C427.77777777777777,0.583333333333333,438.8888888888889,56.541666666666664,466.6666666666667,53C494.44444444444446,49.458333333333336,505.5555555555556,-21.625,533.3333333333334,-21C561.1111111111111,-20.375,572.2222222222222,50.166666666666664,600,56C627.7777777777778,61.833333333333336,638.8888888888889,6.583333333333333,666.6666666666667,7C694.4444444444446,7.416666666666667,705.5555555555557,59.666666666666664,733.3333333333334,58C761.1111111111111,56.333333333333336,786.1111111111111,11.291666666666668,800,-1" transform="matrix(1,0,0,1,0,170)"></path><path d="M10,10C21.805555555555557,12.916666666666668,40.97222222222223,33.166666666666664,66.66666666666667,24C92.36111111111111,14.833333333333334,105.55555555555557,-32.958333333333336,133.33333333333334,-34C161.11111111111111,-35.041666666666664,172.22222222222223,15.666666666666668,200,19C227.77777777777777,22.333333333333332,238.8888888888889,-20.5,266.6666666666667,-18C294.44444444444446,-15.5,305.5555555555556,28.083333333333332,333.33333333333337,31C361.11111111111114,33.916666666666664,372.22222222222223,-8.583333333333332,400,-4C427.77777777777777,0.583333333333333,438.8888888888889,56.541666666666664,466.6666666666667,53C494.44444444444446,49.458333333333336,505.5555555555556,-21.625,533.3333333333334,-21C561.1111111111111,-20.375,572.2222222222222,50.166666666666664,600,56C627.7777777777778,61.833333333333336,638.8888888888889,6.583333333333333,666.6666666666667,7C694.4444444444446,7.416666666666667,705.5555555555557,59.666666666666664,733.3333333333334,58C761.1111111111111,56.333333333333336,786.1111111111111,11.291666666666668,800,-1" transform="matrix(1,0,0,1,0,136)"></path><path d="M10,10C21.805555555555557,12.916666666666668,40.97222222222223,33.166666666666664,66.66666666666667,24C92.36111111111111,14.833333333333334,105.55555555555557,-32.958333333333336,133.33333333333334,-34C161.11111111111111,-35.041666666666664,172.22222222222223,15.666666666666668,200,19C227.77777777777777,22.333333333333332,238.8888888888889,-20.5,266.6666666666667,-18C294.44444444444446,-15.5,305.5555555555556,28.083333333333332,333.33333333333337,31C361.11111111111114,33.916666666666664,372.22222222222223,-8.583333333333332,400,-4C427.77777777777777,0.583333333333333,438.8888888888889,56.541666666666664,466.6666666666667,53C494.44444444444446,49.458333333333336,505.5555555555556,-21.625,533.3333333333334,-21C561.1111111111111,-20.375,572.2222222222222,50.166666666666664,600,56C627.7777777777778,61.833333333333336,638.8888888888889,6.583333333333333,666.6666666666667,7C694.4444444444446,7.416666666666667,705.5555555555557,59.666666666666664,733.3333333333334,58C761.1111111111111,56.333333333333336,786.1111111111111,11.291666666666668,800,-1" transform="matrix(1,0,0,1,0,102)"></path><path d="M10,10C21.805555555555557,12.916666666666668,40.97222222222223,33.166666666666664,66.66666666666667,24C92.36111111111111,14.833333333333334,105.55555555555557,-32.958333333333336,133.33333333333334,-34C161.11111111111111,-35.041666666666664,172.22222222222223,15.666666666666668,200,19C227.77777777777777,22.333333333333332,238.8888888888889,-20.5,266.6666666666667,-18C294.44444444444446,-15.5,305.5555555555556,28.083333333333332,333.33333333333337,31C361.11111111111114,33.916666666666664,372.22222222222223,-8.583333333333332,400,-4C427.77777777777777,0.583333333333333,438.8888888888889,56.541666666666664,466.6666666666667,53C494.44444444444446,49.458333333333336,505.5555555555556,-21.625,533.3333333333334,-21C561.1111111111111,-20.375,572.2222222222222,50.166666666666664,600,56C627.7777777777778,61.833333333333336,638.8888888888889,6.583333333333333,666.6666666666667,7C694.4444444444446,7.416666666666667,705.5555555555557,59.666666666666664,733.3333333333334,58C761.1111111111111,56.333333333333336,786.1111111111111,11.291666666666668,800,-1" transform="matrix(1,0,0,1,0,68)"></path><path d="M10,10C21.805555555555557,12.916666666666668,40.97222222222223,33.166666666666664,66.66666666666667,24C92.36111111111111,14.833333333333334,105.55555555555557,-32.958333333333336,133.33333333333334,-34C161.11111111111111,-35.041666666666664,172.22222222222223,15.666666666666668,200,19C227.77777777777777,22.333333333333332,238.8888888888889,-20.5,266.6666666666667,-18C294.44444444444446,-15.5,305.5555555555556,28.083333333333332,333.33333333333337,31C361.11111111111114,33.916666666666664,372.22222222222223,-8.583333333333332,400,-4C427.77777777777777,0.583333333333333,438.8888888888889,56.541666666666664,466.6666666666667,53C494.44444444444446,49.458333333333336,505.5555555555556,-21.625,533.3333333333334,-21C561.1111111111111,-20.375,572.2222222222222,50.166666666666664,600,56C627.7777777777778,61.833333333333336,638.8888888888889,6.583333333333333,666.6666666666667,7C694.4444444444446,7.416666666666667,705.5555555555557,59.666666666666664,733.3333333333334,58C761.1111111111111,56.333333333333336,786.1111111111111,11.291666666666668,800,-1" transform="matrix(1,0,0,1,0,34)"></path></g></svg>